/* XPM */
static char *result[] = {
/* columns rows colors chars-per-pixel */
"32 32 87 1 ",
"  c #E9CAA8",
". c #E9CBA8",
"X c #E9CBA9",
"o c #E9CCA8",
"O c #E9CCA9",
"+ c #E9CDA9",
"@ c #E9CCAA",
"# c #E9CDAA",
"$ c #E9CCAB",
"% c #E9CDAB",
"& c #E9CEAA",
"* c #E9CEAB",
"= c #E9CEAC",
"- c #E9CFAC",
"; c #E9CFAD",
": c #E9CEAE",
"> c #E9CFAE",
", c #E9CFAF",
"< c #E9D0AC",
"1 c #E9D0AD",
"2 c #E9D1AD",
"3 c #E9D0AE",
"4 c #E9D1AE",
"5 c #E9D0AF",
"6 c #E9D1AF",
"7 c #E9D1B0",
"8 c #E9D1B1",
"9 c #EAD0B0",
"0 c #EAD1B1",
"q c #E9D2B0",
"w c #E9D2B1",
"e c #EAD2B0",
"r c #EAD3B0",
"t c #EAD2B1",
"y c #EAD3B1",
"u c #EAD1B2",
"i c #E9D2B2",
"p c #EAD2B2",
"a c #EAD3B2",
"s c #EAD2B3",
"d c #EAD3B3",
"f c #EAD4B2",
"g c #EAD5B2",
"h c #EAD4B3",
"j c #EAD5B3",
"k c #EAD6B3",
"l c #EAD3B4",
"z c #EAD4B4",
"x c #EAD5B4",
"c c #EAD5B5",
"v c #EAD6B4",
"b c #EAD6B5",
"n c #EAD7B5",
"m c #EAD4B6",
"M c #EAD5B6",
"N c #EAD5B7",
"B c #EAD6B6",
"V c #EAD7B6",
"C c #EAD6B7",
"Z c #EAD7B7",
"A c #EAD8B6",
"S c #EAD8B7",
"D c #EAD9B7",
"F c #EAD7B8",
"G c #EAD6B9",
"H c #EAD7B9",
"J c #EAD7BA",
"K c #EAD8B8",
"L c #EAD9B8",
"P c #EAD8B9",
"I c #EAD9B9",
"U c #EADAB9",
"Y c #EAD8BA",
"T c #EAD9BA",
"R c #EAD8BB",
"E c #EAD9BB",
"W c #EADABA",
"Q c #EADABB",
"! c #EAD8BC",
"~ c #EAD9BC",
"^ c #EAD9BD",
"/ c #EADABC",
"( c #EADABD",
") c #EAD9BE",
"_ c #EADABE",
"` c #EADBBE",
"' c #EADABF",
/* pixels */
" =fnALQQLnvbVAAvppxVALQQLnvbnj1&",
"X=fbALQQLnvbVAAvddxVALQQLnvbnj1&",
"#-avVLQQLnvbVAAbbcbbVLQQLnvbnj1&",
"&1axSIWWDAVVAAAAVnvbSIWWDAVVnj1&",
"&1aBPWISASPPSAAAAnvBPWISASPPAj1&",
"*1fVPPSVADWWISAASZbVPPSVADWWKx1#",
"-6jVSZbbVSDIWPVVPPSASZbbVSLIIB3O",
"-7BPSnvbVAALWPBBPWILAnvbVAALIB3O",
"*wJ(InvbVAASDSbbSPTUSnvbVAASSx;O",
"#7J(InxcFISAAVbbbZPISnxcFISAng-+",
"o;cPSbzm!(IAAAVcdzZSAblm!(IAng1&",
".=hVAbzN)`ISLLAbddbAAbzN)`ISSv2&",
"O-fnAVnF~/LLWWSnxxbAAVbF~/LLIB4&",
"O-gVIISKUISKEQLnvbVSLKASWISKEF6&",
"O-gP((IASSbZEQLnvbVKWWDSSSbZTF6&",
"%3jI`_InbcbVPWIKFFSLQEKnbcbVPC6*",
",8vP(~ZxddbVSIQ/_^ILQEZxddbVSb6-",
":7xKQTBzdhnSLIQ~)!PI(~ZzdhnSPB7-",
"$;fKQYBxxbnSWWPFNMZT'_FxxbVP(Jw*",
"X=fVPPVbVbbZEQKbzzbP(^FbVbbP_Rq&",
"#-ybZSAVVbdcYQLnbbbVPISVVblMRH6&",
"&-txbAASSVhzFIDAAbxxnAASSVhzFB4&",
"&-9dbAALTPcxZDAAAbddbAALTPcxVj2&",
"&;smBAAI(~ZbVSIISVMMBAAI(~Zbnj4-",
"&7G!KAAT''IVAI((IP!!KAAT''IVnjw5",
"#7R_IAVP(_TKSK!!KP__IAVP(_TKAj7:",
"O5H/LVbVPTQWSVmmcZ~/LVbVPTQUAf;@",
"O3BTISbbVKUUSbsuhBIWISbbVKUUAy% ",
"O;jKTPBvbnAAAxpudbSPTPBvbnAAny% ",
"+-rxZCzfffgkjh09eyhbZCzfffgkjt=X",
"&*<6ii3-==14w8;--116ii3-==14q6=#",
"&&&-5,=+.X#-5,=&&&&-5,=+.X#-3>=&"
};
