/* XPM */
static char *result[] = {
/* columns rows colors chars-per-pixel */
"32 32 60 1 ",
"  c #783E3A",
". c #6D484E",
"X c #7C5656",
"o c #795459",
"O c #745D68",
"+ c #615E73",
"@ c #666376",
"# c #706C7C",
"$ c #75707F",
"% c #813F39",
"& c #864038",
"* c #9E4335",
"= c #AC4533",
"- c #BF4830",
"; c #C0573E",
": c #955144",
"> c #B15540",
", c #B25540",
"< c #B3745D",
"1 c #BC755B",
"2 c #BD755B",
"3 c #886262",
"4 c #997168",
"5 c #A57D73",
"6 c #A87E70",
"7 c #C06349",
"8 c #C1765B",
"9 c #C17A5E",
"0 c #9E827E",
"q c #9E827F",
"w c #AB8173",
"e c #B18779",
"r c #B48A7C",
"t c #B48B7C",
"y c #C28165",
"u c #C28569",
"i c #5B6986",
"p c #6B6D84",
"a c #6A748D",
"s c #717183",
"d c #717184",
"f c #7E7988",
"g c #7A7B8C",
"h c #677592",
"j c #677692",
"k c #7F8EA9",
"l c #7F8FA9",
"z c #858396",
"x c #83869B",
"c c #8A8899",
"v c #898A9B",
"b c #908C99",
"n c #94919F",
"m c #A18581",
"M c #A18582",
"N c #808CA5",
"B c #8590A7",
"V c #9294A4",
"C c #9995A2",
"Z c #9996A2",
/* pixels */
"uuuuuuuuuuuuutZCruuuuuuuuuuuuuuu",
"888888888889ytZn5<28888888888888",
";;;;;;;;;;;79tZc3:,;;;;;;;;;;;;;",
"-----------;8tZzo&=-------------",
"-----------;8tZzo&=-------------",
"-----------;8tZzo&=-------------",
"-----------;8tZzo&=-------------",
"-----------;8tZzo&=-------------",
"-----------;8tZzo&=-------------",
"-----------;8tZzo&=-------------",
"-----------;8tZzo&=-------------",
"===========>2tZzo%*=============",
"&&&&&&&&&&&:<tZzo %&&&&&&&&&&&&&",
"...........X4mVxO...............",
"+++++++++++@#gBNp+++++++++++++++",
"$$$$$$$$$$$$$fbbf$$$$$$daas$$$$$",
"6666666666666weew666666qvv066666",
"8888888888888888888889ytZn5<2888",
";;;;;;;;;;;;;;;;;;;;;79tZc3:,;;;",
"---------------------;8tZzo&=---",
"---------------------;8tZzo&=---",
"---------------------;8tZzo&=---",
"---------------------;8tZzo&=---",
"---------------------;8tZzo&=---",
"---------------------;8tZzo&=---",
"---------------------;8tZzo&=---",
"---------------------;8tZzo&=---",
"=====================>1tZzo%*===",
"&&&&&&&&&&&&&&&&&&&&&:<tZzo %&&&",
".....................X4MVxO.....",
"+++++++++++++++++++++@#gBNp+++++",
"iiiiiiiiiiiiiiiiiiiiiiijlkhiiiii"
};
