/* XPM */
static char *result[] = {
/* columns rows colors chars-per-pixel */
"32 32 99 2 ",
"   c #354E6D",
".  c #395170",
"X  c #435B76",
"o  c #4D697F",
"O  c #4D6B83",
"+  c #546681",
"@  c #556C84",
"#  c #557185",
"$  c #5A7085",
"%  c #55738A",
"&  c #5B778C",
"*  c #56798B",
"=  c #5C7B8D",
"-  c #64768E",
";  c #607D90",
":  c #6E7D94",
">  c #608493",
",  c #6A8A9A",
"<  c #71859A",
"1  c #718C9C",
"2  c #7A889B",
"3  c #6E919E",
"4  c #6F96A4",
"5  c #7C95A5",
"6  c #7099A3",
"7  c #779FA8",
"8  c #7D9EA9",
"9  c #7DA2A5",
"0  c #7BA6AD",
"q  c #838E9F",
"w  c #839CA9",
"e  c #84A4AE",
"r  c #8EA1A9",
"t  c #84AAAF",
"y  c #8AA2B0",
"u  c #85ACB1",
"i  c #8DAAB2",
"p  c #96AFB3",
"a  c #84B0B4",
"s  c #8CB2B6",
"d  c #94B2B4",
"f  c #9AB5B6",
"g  c #93B3BA",
"h  c #9CB6BD",
"j  c #96BABB",
"k  c #9BBFBF",
"l  c #A2B0B7",
"z  c #A9B4BC",
"x  c #BBBCBD",
"c  c #C1BFBC",
"v  c #A9C4BF",
"b  c #C1C0BB",
"n  c #E9CEAB",
"m  c #E9D0AE",
"M  c #EAD5B4",
"N  c #EAD8B6",
"B  c #EAD7B9",
"V  c #EAD9BA",
"C  c #A4BDC2",
"Z  c #A4C3C4",
"A  c #ABC6C3",
"S  c #AECAC6",
"D  c #ABC6CA",
"F  c #AEC9CB",
"G  c #B1C6C6",
"H  c #BFC2C6",
"J  c #B1CAC5",
"K  c #B4CDCA",
"L  c #B9CFCD",
"P  c #B6D0CB",
"I  c #BBD1CE",
"U  c #B6CED1",
"Y  c #BBD4D3",
"T  c #CECAC3",
"R  c #C6C9CD",
"E  c #C8CACC",
"W  c #D3D0C9",
"Q  c #DCD5C8",
"!  c #C3D6D4",
"~  c #CCD6D5",
"^  c #C3D9D7",
"/  c #C0D6D8",
"(  c #C4D9DA",
")  c #CADDDB",
"_  c #D5DDDB",
"`  c #E5DAC5",
"'  c #EADCC3",
"]  c #E2DCCB",
"[  c #CEE1DE",
"{  c #E7E2CF",
"}  c #E6E2D1",
"|  c #EDE3D3",
" . c #EDE6DA",
".. c #F0E5D3",
"X. c #F1E7D9",
"o. c #F1E9DB",
"O. c #D5E5E3",
"+. c #DBE9E6",
"@. c #DFECE9",
/* pixels */
"n n M M M V V V N N M M N N N M M M M M N N V V V N N M N M m n ",
"n n m M N N V V N N M N N N N M m M M N N N V V N N M M N m m n ",
"n n M M N V V V N N M M M N N M N M M M N V V V V N N M M M n n ",
"n n M M N V V V N N N N N N M N N M M M N V V V N N N N M M m n ",
"n m M M V V V N N N V V N N N M N M M M V V V N N N V V N M n n ",
"n m M M V N N N N N V V V V N M N N M V V V N N N N V V N M n n ",
"n m M N N N N M M N N V V V ' ` ` ' V V N N M N N N N N N N m n ",
"m m M V N M M N N N N N V ] C z C G ] V N M M M N N N N N N n n ",
"n M M V V M M M N N N N ] l p f p d G { V M M M N N N N N M m n ",
"n m V V V N M M V V V ` r 9 S L A v v I { B M M N N N N N N n n ",
"n n B B M M M M V V ' l > 9 h K P J ) ) ! ' M M V V V N N m m n ",
"n n M M V M M M V ' Q 1 > t A Y ! O.@.O.K ] B M V ' V N N M n n ",
"n n M M N M N M V ` z * u F ( [ O.+.[ I A ! V V V V N N N N m m ",
"n n M M N V N V V Q < 3 C D j Z K P P J Z Z } V V V N V V N m n ",
"n n M B V V V N B R O y s u j Y O.O.O.I Z t _ V V N N N V N m m ",
"n n M B V ' V N B H % 7 6 s ( O.[ Y [ O.^ i ~ V M M M M N N m n ",
"n M M V ' V V M  .< ; , 4 F Y D k k Z Z / g e | M M M B V M m n ",
"n m M V V V M M X.- % & 8 C D a k Y Z s Z h 5 X.M M M B V M M m ",
"n n M M V V M M o.- O O 8 h 0 0 U D 0 0 j y 1  .M M B B V B m n ",
"n n M M V B V M ..2 . O , y 4 4 Z g 0 6 i 5 w | M M M B ' V m n ",
"n n M M N N N M B E   X % < ; ; w h p e i * R V M M M M B B M n ",
"n n m M M N N N B W +   O & % % * , w 5 = & W V V M M M B M n n ",
"n n m M M V B V V ' b +   O @ + O o # o $ c V M V B M M N M m n ",
"n n M M M N M V V V V c + X X X X X X @ x V V V V V N M M M m n ",
"n M B ' M B B B ' ' V V T x q : : q x T ' N V V ' V V N M M m m ",
"n n B V B M B B V V V N V ' ` ] Q ` ' ' V N M V V ' V N N M m m ",
"n n B ' V M M M V V V V N M B M M N V V N M M M B V V V M M m n ",
"n n B V V V M M N N V V N M M m M M V V V V M M B B V V N m n n ",
"n m M B V V M M M M B M M M M M M M M V V B M M M N N M M m n n ",
"n n m M N M M M M m M M M M n m M m M M B M M M M m M M M M n n ",
"n n n M M M m n n n m m M n n m n n n M M n n n n n n M M n n n ",
"n n n n n n n n n n n n m m m n n n n n M n n n n n n n n n n n "
};
