/* XPM */
static char *result[] = {
/* columns rows colors chars-per-pixel */
"32 32 149 2 ",
"   c #3C2A22",
".  c #4B382E",
"X  c #523B2E",
"o  c #5A3C2E",
"O  c #4F3E33",
"+  c #613E2D",
"@  c #57473B",
"#  c #5C4B3F",
"$  c #674432",
"%  c #6C4C3B",
"&  c #7C4A35",
"*  c #7B4E38",
"=  c #72543F",
"-  c #7A513C",
";  c #5C4E43",
":  c #665545",
">  c #6A5D4C",
",  c #715545",
"<  c #7C5640",
"1  c #7F5E48",
"2  c #7F604C",
"3  c #6C6355",
"4  c #716757",
"5  c #7E6450",
"6  c #75695B",
"7  c #756C63",
"8  c #814D36",
"9  c #84533C",
"0  c #8A533A",
"q  c #8B593F",
"w  c #93593E",
"e  c #835741",
"r  c #885C46",
"t  c #965D42",
"y  c #995F43",
"u  c #80614D",
"i  c #8C624C",
"p  c #946146",
"a  c #9C6245",
"s  c #9A6549",
"d  c #946C4F",
"f  c #866D54",
"g  c #956E54",
"h  c #90775A",
"j  c #A36547",
"k  c #A66E4E",
"l  c #AE704F",
"z  c #A86D50",
"x  c #A37055",
"c  c #AD7352",
"v  c #A6765C",
"b  c #AC7B5B",
"n  c #B47553",
"m  c #B27A57",
"M  c #BD7B57",
"N  c #B37D5C",
"B  c #BD7D5A",
"V  c #8C7E6A",
"C  c #A37E65",
"Z  c #C17F5A",
"A  c #B5815C",
"S  c #BC845F",
"D  c #8C8370",
"F  c #948672",
"G  c #998B77",
"H  c #9F937D",
"J  c #AB8263",
"K  c #A5846F",
"L  c #AD8D69",
"P  c #B68261",
"I  c #BB8560",
"U  c #BC8A64",
"Y  c #B2876A",
"T  c #B28B6E",
"R  c #BC8E6C",
"E  c #B5936D",
"W  c #A98F74",
"Q  c #BB9274",
"!  c #B5947B",
"~  c #BC9679",
"^  c #BE9A7D",
"/  c #C5855E",
"(  c #CA845D",
")  c #C18661",
"_  c #CE8760",
"`  c #C18D66",
"'  c #CB8B63",
"]  c #C18F6C",
"[  c #D08C63",
"{  c #C49269",
"}  c #CA946A",
"|  c #D5966B",
" . c #D49A6E",
".. c #D99A6E",
"X. c #CA9672",
"o. c #CC9D72",
"O. c #C29A7C",
"+. c #D59E71",
"@. c #D3A175",
"#. c #DDA375",
"$. c #D3A57A",
"%. c #D5A87A",
"&. c #DBAC7C",
"*. c #E3AE7E",
"=. c #A69C86",
"-. c #B99C8A",
";. c #AFA28A",
":. c #B1A189",
">. c #B6A495",
",. c #BCAE95",
"<. c #C29F81",
"1. c #C6A98D",
"2. c #CAAC8C",
"3. c #D2A481",
"4. c #D7A883",
"5. c #D5B182",
"6. c #D8B181",
"7. c #DAB18E",
"8. c #CEB293",
"9. c #C5B498",
"0. c #C9B699",
"q. c #D5BB9C",
"w. c #E5B281",
"e. c #E1B887",
"r. c #EAB986",
"t. c #E4BB88",
"y. c #ECBC89",
"u. c #E2BF9B",
"i. c #CCBDA2",
"p. c #EDC18C",
"a. c #F0C38E",
"s. c #E0C19F",
"d. c #F3C690",
"f. c #F6CE96",
"g. c #F9D198",
"h. c #D2C2A4",
"j. c #D8C4A6",
"k. c #DDC7A9",
"l. c #DDC9AA",
"z. c #EBCCA2",
"x. c #E4CDAC",
"c. c #E9CEAB",
"v. c #E7D0AD",
"b. c #E9D0AE",
"n. c #E5D2B2",
"m. c #EAD5B4",
"M. c #EAD8B6",
"N. c #EAD7B9",
"B. c #EAD9BA",
/* pixels */
"c.c.b.m.M.M.B.B.M.M.m.M.M.M.m.m.m.m.M.M.M.M.B.B.B.M.m.m.M.M.b.z.",
"c.c.m.m.M.M.B.B.M.M.m.m.m.m.n.v.x.x.c.m.M.M.B.B.B.M.m.M.M.b.b.b.",
"c.c.m.m.M.B.B.B.M.M.m.m.m.2.R 3.4.Q ^ x.M.M.B.B.B.M.m.m.M.M.b.c.",
"c.c.m.m.M.B.B.B.M.M.M.m.q.%.$.w.w.+.A Q l.M.B.B.B.M.M.M.M.b.b.c.",
"c.c.m.M.B.B.B.M.M.M.m.u.6.d.g.g.g.g.w.B Q x.M.M.M.M.B.B.M.b.b.b.",
"c.c.b.M.B.B.M.M.M.M.m.7.*.f.f.g.g.g.a.( v l.N.m.M.M.B.B.M.m.b.z.",
"c.m.m.M.M.M.m.M.M.M.x.O.o.f.f.f.f.f.p.) x q.n.m.M.M.B.M.M.M.b.c.",
"c.b.M.M.M.M.m.m.m.M.s.B ` d.g.g.g.g.r./ t Q x.m.M.M.M.M.N.M.b.c.",
"c.b.N.B.N.M.M.m.M.M.z.] n #.&.r.y.4.' M j X.c.m.M.M.M.M.M.m.c.z.",
"c.m.B.B.N.M.m.m.M.N.z.A a C i M ( r v x 9 ] x.m.M.M.B.N.M.m.c.c.",
"c.c.N.N.M.m.m.m.B.B.s.u o -.7 b } > >.e . ! x.m.B.B.B.N.M.m.c.c.",
"c.c.m.N.N.m.m.m.B.B.m.:.: K W 5.e.C ! , V j.m.m.B.B.B.B.M.M.b.c.",
"z.c.m.m.M.M.M.M.B.B.N.8.2 = U a.a.' e % ^ x.m.N.B.B.N.M.B.M.c.c.",
"c.c.m.M.N.M.B.N.B.B.8.N l p s A A k p z n <.n.N.B.B.M.N.B.M.b.c.",
"c.c.m.N.B.B.B.B.B.n.~ z _ _ } o.o.X.' _ Z C l.m.B.M.m.M.N.M.m.c.",
"c.b.m.N.B.B.B.N.N.8.N +...n %.g.g.y.m ' #.I <.c.M.M.M.M.N.M.b.c.",
"c.m.N.M.B.B.N.m.m.^ U a.#.< L f.g.%., S d.@.L x.b.m.N.m.M.m.m.c.",
"c.n.m.M.B.B.m.m.m.O.R a.I o d a.d.{ X d r.%.Y x.m.m.M.M.M.N.m.c.",
"c.c.n.M.B.B.m.m.m.! b #.c o t *.r.A o q  .S K x.m.m.m.M.B.N.b.c.",
"c.b.m.N.B.B.m.m.n.F h y.m 8 0 n M y & p *.E 6 l.n.m.m.M.B.N.m.c.",
"c.c.b.N.B.M.M.m.m.D f  .0 & w j w 0 & * S J 4 l.m.M.m.m.B.N.b.c.",
"c.c.b.m.m.M.M.M.m.;.5 - . + n Z a w &   $ 2 D n.N.m.m.m.N.N.b.c.",
"c.c.b.m.m.M.M.B.B.n.;.6 ; e ' [ j n w . 3 G l.M.M.N.m.m.m.m.c.c.",
"c.c.m.N.m.M.M.B.B.B.m.x.T ` y.| j Z l # 0.n.M.M.B.B.M.m.m.m.m.c.",
"c.b.B.B.B.N.N.N.B.B.B.2.N %.f.| j M c ; i.m.N.B.B.B.B.B.N.m.m.c.",
"c.b.B.B.B.N.N.N.B.B.n.-.n ..#.[ j ) +.g V h.m.N.B.B.B.B.M.m.m.c.",
"c.b.N.B.N.M.m.N.M.n.1.P +.w.| B s { t.o.1 V l.N.B.B.B.B.m.m.c.c.",
"c.b.m.N.N.N.m.m.m.=.2 U 6.5.v o O : > > @ 3 k.N.B.B.B.B.M.b.c.c.",
"c.c.m.N.N.N.M.m.n.H ; : > > @ @ G ,.,.,.>.i.m.m.m.M.m.N.M.m.c.z.",
"c.c.m.N.M.N.m.m.m.k.9.9.9.9.,.9.x.n.m.m.N.m.m.b.m.b.m.m.m.b.c.c.",
"c.c.c.b.b.m.c.c.c.c.x.v.v.n.c.c.b.b.c.v.m.m.c.c.c.c.b.b.b.b.c.c.",
"c.c.c.b.b.c.c.c.z.c.c.b.b.x.c.c.c.c.c.b.b.c.c.c.c.c.c.b.b.b.c.c."
};
