/* XPM */
static char *result[] = {
/* columns rows colors chars-per-pixel */
"32 32 138 2 ",
"   c #2E2521",
".  c #3C2B24",
"X  c #362E28",
"o  c #4C3428",
"O  c #533629",
"+  c #543A2D",
"@  c #433C34",
"#  c #4A3F36",
"$  c #613D2D",
"%  c #464139",
"&  c #4E443B",
"*  c #504134",
"=  c #644333",
"-  c #6C4431",
";  c #644B3C",
":  c #6D4F3C",
">  c #754732",
",  c #754A36",
"<  c #7A4B35",
"1  c #74503B",
"2  c #534B41",
"3  c #575046",
"4  c #585147",
"5  c #5D5449",
"6  c #635245",
"7  c #6D5746",
"8  c #63574A",
"9  c #66594A",
"0  c #685B4C",
"q  c #735440",
"w  c #705B4B",
"e  c #6B5F53",
"r  c #756150",
"t  c #7E7261",
"y  c #844F37",
"u  c #885037",
"i  c #8D563D",
"p  c #91573D",
"a  c #92593E",
"s  c #8D5C43",
"d  c #8C6247",
"f  c #8B684F",
"g  c #966246",
"h  c #9A6447",
"j  c #946549",
"k  c #9D6749",
"l  c #8A6B55",
"z  c #9E7154",
"x  c #917659",
"c  c #9A745B",
"v  c #92795A",
"b  c #A36C4D",
"n  c #AA6C4C",
"m  c #AE714F",
"M  c #A57353",
"N  c #AB7655",
"B  c #AD7856",
"V  c #A3755B",
"C  c #A4785C",
"Z  c #A97B5C",
"A  c #B37552",
"S  c #B47857",
"D  c #BD7A56",
"F  c #B37B5A",
"G  c #B97E5C",
"H  c #827463",
"J  c #967F60",
"K  c #AB7D61",
"L  c #C17F5B",
"P  c #BA805C",
"I  c #9B8E79",
"U  c #AD8164",
"Y  c #AF8965",
"T  c #B08266",
"R  c #B2866A",
"E  c #B4896B",
"W  c #B59069",
"Q  c #B58F73",
"!  c #A0947F",
"~  c #BA9376",
"^  c #BD977A",
"/  c #BB987B",
"(  c #C2845D",
")  c #C48C64",
"_  c #CB8B63",
"`  c #D18B63",
"'  c #CF9067",
"]  c #C49269",
"[  c #CE946A",
"{  c #D4966B",
"}  c #CC9C71",
"|  c #CF9C79",
" . c #D29973",
".. c #D99E72",
"X. c #D39F7C",
"o. c #CBA276",
"O. c #D7A275",
"+. c #D2A379",
"@. c #DBA27A",
"#. c #D5A97B",
"$. c #DBAA7B",
"%. c #E2AC7C",
"&. c #B2A58C",
"*. c #BAAD93",
"=. c #D5AF82",
"-. c #DBAF80",
";. c #DCB382",
":. c #CAAC91",
">. c #C3B196",
",. c #C3B499",
"<. c #CDBB9E",
"1. c #D4BA9B",
"2. c #E2B382",
"3. c #E4B987",
"4. c #ECBA87",
"5. c #EDBE8A",
"6. c #CDBDA1",
"7. c #D1BEA2",
"8. c #F2C68F",
"9. c #F1C690",
"0. c #F6CD96",
"q. c #F9D199",
"w. c #D3C2A5",
"e. c #DCC5A5",
"r. c #DAC7AA",
"t. c #DDCAAC",
"y. c #DDCEB0",
"u. c #E2C8A6",
"i. c #E3CCAB",
"p. c #E9CEAB",
"a. c #E5D1AF",
"s. c #E9D0AE",
"d. c #E2CFB1",
"f. c #E5D2B2",
"g. c #EAD5B4",
"h. c #EAD8B6",
"j. c #EAD7B9",
"k. c #EAD9BA",
/* pixels */
"p.p.g.g.g.k.k.k.h.h.g.g.h.g.g.g.g.g.g.g.h.k.k.k.k.h.g.g.h.g.s.p.",
"p.p.s.g.h.h.k.k.h.h.g.h.h.a.i.g.i.i.g.g.h.h.k.k.h.h.g.g.g.g.s.p.",
"p.p.g.g.h.k.k.k.h.h.f.f.u.Q E +.| R ^ u.h.k.k.k.h.h.g.g.h.g.s.p.",
"p.p.g.g.h.k.k.k.k.g.r.| +.+.+.2.2.} G T / f.k.k.h.h.h.h.h.g.p.p.",
"p.s.g.g.k.k.h.h.g.i.~ G 2.0.q.q.q.0.@.m M r.j.g.h.h.k.h.h.g.p.p.",
"p.p.g.h.k.k.h.h.k.e.Z $.0.0.0.0.0.0.4.` S ^ f.j.h.h.k.k.h.g.p.p.",
"p.s.g.g.h.h.h.h.g.e.Z 3.0.0.0.0.5...{ ` L K u.g.h.h.h.k.h.h.p.p.",
"s.s.g.k.h.h.g.g.j.e.Z 2.q.0.0.5.[ n A L D C i.g.h.h.h.h.h.h.p.p.",
"p.g.j.k.k.h.g.g.h.e.z { 5.5...' A ( ] N b r r.g.h.h.h.h.h.g.s.p.",
"p.s.k.k.k.g.g.g.j.w.7 S ` M N _ O...} s < 5 r.g.h.h.h.k.h.g.s.p.",
"p.p.g.j.j.g.g.g.k.7.6 S G 6 :.X.5.$.d O = e r.g.k.k.k.k.g.g.s.p.",
"p.p.g.j.g.g.g.g.k.r.c #.#.e >.@.%.( -   6 >.f.g.k.k.k.k.h.g.p.p.",
"p.p.g.g.h.g.h.k.k.t.C 2.9.=. .( k , . 3 ,.f.g.h.k.k.h.k.h.h.s.s.",
"p.p.g.g.k.k.h.h.k.t.K _ 3.2.S i > . % *.h.k.h.h.k.k.h.h.h.h.s.p.",
"p.p.g.k.k.k.k.k.k.f.1.K j h = + s 1 9 w.k.k.h.h.k.h.g.h.k.h.s.p.",
"p.p.g.g.k.k.k.k.j.g.g.>.2 S B j #.o.C 1.k.k.k.g.h.g.h.h.h.h.s.p.",
"s.p.g.j.k.k.j.g.g.g.f.&.2 =.$.z ;.5.) R f.k.k.j.d.g.g.j.j.g.s.p.",
"p.g.g.k.k.k.g.g.g.a.&.& * =.| ; ] 8.#.U f.k.k.j.g.g.g.j.k.g.g.s.",
"p.s.g.g.k.k.g.g.g.7.4 . 1 O.M + P 9.$.U f.k.g.g.g.g.j.j.k.j.s.p.",
"p.p.g.j.k.k.h.g.g.6.& - a P < o j %.o.c f.k.k.g.g.g.g.j.k.j.g.p.",
"p.p.g.g.k.h.h.g.h.w.r = < n y O j { Z 0 d.k.h.h.j.g.g.g.k.j.s.p.",
"p.p.s.g.g.h.h.h.h.g.<.e . y y i _ 8.W 9 t.g.h.h.g.g.g.g.j.j.g.p.",
"p.s.s.g.h.h.j.k.j.j.f.>.# > u s B Y f H i.h.h.k.k.k.g.g.g.g.p.p.",
"p.s.s.j.f.h.h.k.k.k.j.6.# > p b g = w 7.h.h.h.k.k.k.h.g.g.g.s.p.",
"p.s.k.k.k.j.j.j.k.k.k.6.@ $ h -...A V i.g.h.g.j.k.k.k.k.j.g.g.p.",
"p.s.k.k.k.j.j.j.k.j.y.&.$ y b 5.4._ F :.f.h.k.j.k.k.k.k.h.g.g.p.",
"p.s.j.k.j.g.g.j.j.d.&.2 , u h X.%.` D Z f.k.g.g.k.k.k.k.g.g.p.p.",
"p.s.g.j.k.j.g.g.j.6.# o + $ b ....` N l f.h.g.g.k.k.k.k.g.s.p.p.",
"p.p.g.j.k.j.j.g.g.i.J e X : } 9.9...b 8 t.j.j.g.g.g.g.j.g.g.p.p.",
"p.p.g.g.j.g.g.g.g.g.f.6.& q v v J x ; @ ! d.g.g.g.g.g.g.g.g.p.p.",
"p.p.p.g.s.g.p.p.p.p.s.7.J t H H H H H t I i.p.p.p.p.s.s.s.p.p.p.",
"p.p.p.p.s.s.p.p.p.p.p.d.i.d.u.u.u.u.u.i.i.p.p.p.p.p.p.p.p.p.p.p."
};
