/* XPM */
static char *result[] = {
/* columns rows colors chars-per-pixel */
"32 32 136 2 ",
"   c #3B2E26",
".  c #422E25",
"X  c #4D3327",
"o  c #4F3A2E",
"O  c #533629",
"+  c #55392D",
"@  c #5A3C2E",
"#  c #433E37",
"$  c #4C3D32",
"%  c #47433B",
"&  c #6B4332",
"*  c #6F4D3B",
"=  c #714532",
"-  c #794A36",
";  c #734D3A",
":  c #7C533D",
">  c #514C42",
",  c #5B544A",
"<  c #665244",
"1  c #6A5647",
"2  c #6B5748",
"3  c #7C5641",
"4  c #7A5E47",
"5  c #765F49",
"6  c #7F634B",
"7  c #7F6C55",
"8  c #7C7464",
"9  c #854F37",
"0  c #875037",
"q  c #895139",
"w  c #8A5A40",
"e  c #995E42",
"r  c #85664D",
"t  c #85684F",
"y  c #956348",
"u  c #9D674B",
"i  c #9E694C",
"p  c #8B6550",
"a  c #866D53",
"s  c #936B54",
"d  c #996F51",
"f  c #9C7B5C",
"g  c #A16446",
"h  c #A46748",
"j  c #A46D4E",
"k  c #A96A4A",
"l  c #A3704F",
"z  c #B0704F",
"x  c #A17757",
"c  c #AD7251",
"v  c #A87B5A",
"b  c #B27352",
"n  c #B37A57",
"m  c #BA7956",
"M  c #B57D5A",
"N  c #827766",
"B  c #827866",
"V  c #867B6A",
"C  c #887D6C",
"Z  c #B37F60",
"A  c #C27E59",
"S  c #BA835E",
"D  c #92836E",
"F  c #9A836E",
"G  c #938572",
"H  c #9E8871",
"J  c #90867B",
"K  c #978D79",
"L  c #A98461",
"P  c #B28363",
"I  c #BD8761",
"U  c #B78862",
"Y  c #BE8E66",
"T  c #B68A6B",
"R  c #A48A73",
"E  c #A98C72",
"W  c #AD957D",
"Q  c #B59473",
"!  c #B99377",
"~  c #BA9679",
"^  c #BD9A7D",
"/  c #C4825C",
"(  c #C08760",
")  c #CD8760",
"_  c #C48B64",
"`  c #CC8B63",
"'  c #C18A6B",
"]  c #CD9267",
"[  c #C2936B",
"{  c #D8976C",
"}  c #D3996E",
"|  c #DA9B6F",
" . c #CB9B70",
".. c #C59B79",
"X. c #D39E72",
"o. c #DA9F72",
"O. c #DCA375",
"+. c #DEA778",
"@. c #DEAB7C",
"#. c #E0A677",
"$. c #E2AC7C",
"%. c #A39781",
"&. c #A79B86",
"*. c #AEA087",
"=. c #B3A58C",
"-. c #BDAA8F",
";. c #BBAB93",
":. c #D8A686",
">. c #CCAF91",
",. c #C1B197",
"<. c #CEB192",
"1. c #DBB396",
"2. c #D6BA9A",
"3. c #E6B383",
"4. c #E9B785",
"5. c #E6B885",
"6. c #E9BA87",
"7. c #ECBE8A",
"8. c #EEC18D",
"9. c #F2C58F",
"0. c #EEC691",
"q. c #F5CD95",
"w. c #F7D097",
"e. c #F8D098",
"r. c #DCC5A6",
"t. c #DECCAD",
"y. c #E6CDAC",
"u. c #E9CEAB",
"i. c #E5D0AF",
"p. c #E9D0AE",
"a. c #E2CEB0",
"s. c #E5D2B2",
"d. c #EAD5B4",
"f. c #EAD8B7",
"g. c #EAD7B9",
"h. c #EAD9BA",
/* pixels */
"u.u.p.d.d.h.h.h.f.f.f.f.f.f.f.f.d.d.d.d.f.f.h.h.f.f.d.d.f.d.p.u.",
"u.u.d.d.f.f.h.h.f.f.d.d.d.p.s.p.p.p.y.d.g.f.h.h.f.f.d.d.f.d.p.u.",
"u.u.d.d.f.h.h.h.f.f.d.r.<.T j S | I c ..2.r.h.h.f.f.f.d.f.f.p.u.",
"u.u.d.d.f.h.h.h.f.d.d.^ i S $.9.q.0.8.3._ ! r.f.f.f.f.f.f.p.p.u.",
"u.u.d.f.h.h.f.f.f.d.r.T z #.q.q.w.w.w.q.$.M ^ s.f.f.h.h.f.d.p.u.",
"u.u.p.f.h.h.f.f.f.f.~ c ) #.6.9.w.q.q.w.q.[ ~ d.f.f.h.h.f.p.p.u.",
"u.d.d.f.f.f.f.f.f.d.! z ) / m } 9.e.w.w.q.[ ~ y.d.f.f.h.f.d.p.u.",
"u.p.f.f.f.f.d.d.d.d.R u A m z z } 4.8.q.8.U ~ s.f.f.f.f.f.d.p.u.",
"u.p.g.h.g.f.f.d.f.f.N ; h ' O.S / ( _ @.o.h E a.d.f.f.f.f.d.u.u.",
"u.d.h.h.g.d.d.d.g.f.8 @ - d X.3.+.' s i ) : C a.f.f.f.h.f.d.u.u.",
"u.u.g.g.f.d.d.d.h.h.&.< . @ I 7.#.1.J r X.s F a.f.h.h.h.f.p.p.u.",
"u.u.d.f.f.d.d.f.h.h.s.%.#   w _ ] :.W Q 0.Y ! s.h.h.h.h.f.d.p.u.",
"u.u.d.d.d.f.f.g.h.h.f.s.&.% . = g / $.q.7.I ! a.h.h.g.g.f.f.p.p.",
"u.u.d.f.g.f.f.g.h.h.g.s.a.8   & = ; v  ._ Z >.d.h.h.f.f.h.f.p.u.",
"u.u.d.g.h.h.h.h.h.g.d.g.s.G 4 P 3 @ w : p >.f.f.f.h.d.f.h.f.p.u.",
"u.u.d.f.h.h.h.h.g.g.d.d.2.P  .q.U n O.4 C s.f.d.d.f.f.f.f.f.p.p.",
"p.p.f.g.h.h.d.d.d.d.d.s.^ S 3.7.d L 0.a , ;.s.s.d.d.d.f.f.d.d.u.",
"p.u.d.g.h.g.d.d.p.d.d.s.~ [ q.$.* r 6.f   , ;.s.d.d.d.f.f.g.d.y.",
"u.p.d.f.h.h.f.d.d.d.d.s.^ [ q.X.& & _ v &   C t.s.d.g.g.h.g.y.u.",
"u.u.d.g.h.h.f.f.d.d.g.a.R x +.M X + k k 0 + V s.g.d.d.g.h.g.d.u.",
"u.u.p.g.g.f.f.f.d.d.d.t.V t +._ ; & e : @ 2 =.s.d.d.d.f.h.g.d.u.",
"u.u.p.d.d.f.f.f.f.g.d.t.V t 5.$.k q 0 X > =.f.f.f.d.d.d.g.g.y.u.",
"u.p.p.g.d.f.f.f.g.g.d.a.;.7 6 d e q 9 X B i.d.f.g.g.d.d.d.d.p.u.",
"u.p.p.d.g.f.f.h.h.h.g.d.s.F * e S l 0 X B d.f.f.h.h.f.d.f.d.p.u.",
"u.p.h.g.g.g.g.g.h.h.h.h.s.Q b o.7.Y 9 O V s.g.h.h.h.h.h.f.d.p.u.",
"u.p.h.h.g.g.g.g.h.h.h.h.<.Z A #.w._ 9 & 2 &.s.h.h.h.h.h.f.d.d.p.",
"u.p.g.h.g.g.g.g.h.h.h.s.~ c ) { $.M 0 9 & 1 =.a.h.h.h.h.d.d.u.u.",
"u.p.d.g.f.g.d.g.f.f.h.s.H y ) X.3.` : X X   V a.h.h.h.h.f.p.u.u.",
"u.p.d.f.f.f.g.d.f.d.f.t.B : } 8.q.6.P o < K ,.s.d.g.g.g.f.p.u.u.",
"u.p.p.g.g.g.g.p.p.p.i.*.> $ 6 t 7 7 5 $ C a.s.d.d.d.p.d.d.p.u.u.",
"u.u.p.p.p.d.p.u.u.u.y.-.G G C D D D D G ,.p.u.u.u.u.p.p.p.p.u.u.",
"u.u.u.u.u.p.u.u.u.u.y.p.y.i.u.u.y.y.y.y.u.u.u.u.u.u.u.p.p.u.u.u."
};
