/* XPM */
static char *result[] = {
/* columns rows colors chars-per-pixel */
"32 32 148 2 ",
"   c #3E2C25",
".  c #422D23",
"X  c #482F25",
"o  c #473127",
"O  c #4C3227",
"+  c #45352B",
"@  c #4D3529",
"#  c #503428",
"$  c #593A2B",
"%  c #4B3B31",
"&  c #533E31",
"*  c #633D2D",
"=  c #574235",
"-  c #5C4132",
";  c #59473B",
":  c #52483C",
">  c #664534",
",  c #6C4735",
"<  c #6E4A37",
"1  c #634B3D",
"2  c #704835",
"3  c #7D4C37",
"4  c #4F4942",
"5  c #565046",
"6  c #5D5145",
"7  c #645445",
"8  c #6B5343",
"9  c #66594B",
"0  c #685C4D",
"q  c #775845",
"w  c #7B5C49",
"e  c #6B6050",
"r  c #83553D",
"t  c #8B573E",
"y  c #835741",
"u  c #8B5A41",
"i  c #925E43",
"p  c #8F6247",
"a  c #87684D",
"s  c #976145",
"d  c #9C6245",
"f  c #976348",
"g  c #9C6A4C",
"h  c #936E54",
"j  c #8C735F",
"k  c #A06446",
"l  c #A46D4F",
"z  c #AA6B4C",
"x  c #A37353",
"c  c #AA7454",
"v  c #A6765A",
"b  c #A97758",
"n  c #AC7C5D",
"m  c #B27452",
"M  c #B97753",
"N  c #BA7956",
"B  c #B47E5B",
"V  c #8E7661",
"C  c #837969",
"Z  c #8C7E6B",
"A  c #C27F5A",
"S  c #BC835F",
"D  c #AF8460",
"F  c #AD8964",
"G  c #B38463",
"H  c #BC8763",
"J  c #B78965",
"K  c #BC8A64",
"L  c #B58B6A",
"P  c #BA8D6C",
"I  c #A2937C",
"U  c #AB9278",
"Y  c #B89679",
"T  c #CA855E",
"R  c #C38C64",
"E  c #CA8B63",
"W  c #D48D64",
"Q  c #C3936B",
"!  c #CD936A",
"~  c #CC9A6F",
"^  c #D09168",
"/  c #D5986D",
"(  c #D9996E",
")  c #C09372",
"_  c #C29D73",
"`  c #CA9B77",
"'  c #C29C7B",
"]  c #D69E72",
"[  c #DA9F72",
"{  c #C3A57A",
"}  c #D6A477",
"|  c #DCA274",
" . c #D6A77B",
".. c #DDA679",
"X. c #DBAC7D",
"o. c #E3AC7D",
"O. c #E5B07F",
"+. c #A59885",
"@. c #AB9D85",
"#. c #AC9D88",
"$. c #B2A48C",
"%. c #B7A991",
"&. c #C19D81",
"*. c #C7A686",
"=. c #CBAB8C",
"-. c #DBA881",
";. c #D8AD8B",
":. c #C1AF94",
">. c #CBAD91",
",. c #C7B79C",
"<. c #C6B89C",
"1. c #CCBA9E",
"2. c #D3B595",
"3. c #D4BC9D",
"4. c #E1AD81",
"5. c #E4B281",
"6. c #E7B987",
"7. c #EAB986",
"8. c #ECBD89",
"9. c #E2BE9B",
"0. c #D8BEA0",
"q. c #EDC28D",
"w. c #F0C38E",
"e. c #EFC791",
"r. c #F2C790",
"t. c #F6CE96",
"y. c #F7D097",
"u. c #F8D097",
"i. c #F8D198",
"p. c #CFC0A3",
"a. c #DBC2A3",
"s. c #D4C5A9",
"d. c #DDC6A8",
"f. c #DECBAC",
"g. c #DDCFB4",
"h. c #E3C5A3",
"j. c #E1C9A7",
"k. c #E3CDAD",
"l. c #E9CEAB",
"z. c #EBD0A7",
"x. c #E6D0AF",
"c. c #E9D0AE",
"v. c #E5D3B2",
"b. c #EAD5B4",
"n. c #EAD8B6",
"m. c #E1D2B8",
"M. c #EAD7B9",
"N. c #EAD9BA",
/* pixels */
"l.l.c.b.b.n.N.N.n.n.b.b.n.n.n.b.b.b.b.b.n.n.N.N.N.n.b.b.n.n.z.l.",
"l.l.b.b.n.n.N.N.n.n.b.b.v.v.x.x.l.k.b.b.n.n.N.N.N.n.n.b.n.c.c.l.",
"l.l.b.b.N.N.N.N.n.n.b.c.=.L ` -.) L 2.v.n.n.N.N.N.n.n.b.n.b.c.l.",
"l.l.b.b.n.N.N.N.n.b.b.9.X. .5.6.X.R G 2.b.N.N.N.n.n.n.n.n.b.z.l.",
"l.c.b.n.N.N.N.n.b.n.9.4.r.u.u.u.u.8.! n a.N.n.n.n.n.n.N.n.b.c.l.",
"l.l.c.n.N.N.n.n.b.b.;...u.t.u.u.u.t.6.b >.M.M.b.n.N.N.N.n.b.l.l.",
"l.c.b.n.n.b.n.b.b.h.R Q u.t.u.u.u.t.e.l n a.b.M.n.n.n.N.n.b.c.l.",
"l.b.n.n.n.n.b.n.b.l.Q P i.t.u.u.u.u.6.c A d.b.b.n.n.n.n.n.b.l.l.",
"l.b.M.N.M.n.b.n.n.z.Q H r.u.u.i.r.8./ i B h.b.b.n.n.n.n.N.b.l.l.",
"l.c.M.N.M.n.b.b.b.h.B d | 8.8.8.[ W M & h a.b.b.n.n.n.n.M.b.l.l.",
"l.l.M.M.n.b.b.b.N.M.#.8 s E W W W A r 9 :.b.b.b.N.N.N.N.n.b.c.l.",
"l.l.b.n.M.b.b.n.N.N.g.Z o s M M m r % #.v.b.b.M.N.N.N.N.n.b.z.l.",
"l.l.b.b.b.n.n.n.N.N.d.V @ 3 k k d 2 & U k.b.b.M.N.N.n.N.n.M.c.l.",
"l.l.b.n.M.n.n.M.N.d.' G S ^ [ [ ( E B J *.k.n.n.N.N.n.n.N.n.c.l.",
"l.l.b.M.N.N.N.N.M.>.P e.X.o.r.t.r.[ 5.6.G 0.n.n.N.n.b.n.n.b.b.l.",
"l.l.b.n.N.N.N.N.0.P ~ 6.! ! w.t.7.R | 6.R &.g.b.b.M.b.n.N.b.x.l.",
"c.x.b.N.N.N.M.b.=.c 5.O.f f o.t.[ y c 8.} n a.b.b.b.b.b.n.b.b.l.",
"l.b.b.n.N.N.b.b.=.S 7.R , < } t.R $ y [ 5.n 0.b.b.c.b.M.n.M.b.l.",
"l.l.v.n.N.N.b.b.=.x / f # r } t.R , $ m ! v 0.b.b.b.M.M.N.M.c.l.",
"l.l.b.M.N.N.b.b.$.3 T r O S q.y.7.g @ l N w 1.n.M.b.b.M.N.M.b.l.",
"l.l.b.b.n.N.b.n.+.1 m , O Q e.q.q.x . r l 7 <.n.M.b.b.b.N.M.c.l.",
"l.l.b.b.b.n.n.n.p.Z 1   > B n a h u   + 8 I f.n.b.b.b.b.M.M.b.l.",
"l.l.l.b.b.n.n.n.N.s.@.j x / d X * d = C $.f.n.n.N.n.b.b.b.b.l.l.",
"l.l.b.b.b.n.n.N.N.N.v.Y K w.^ , u N 1 #.v.n.n.n.N.N.n.b.b.b.c.l.",
"l.b.N.M.N.M.M.M.N.m.+.q Q r.| i z A = 4 %.v.M.N.N.N.N.N.n.b.b.c.",
"l.l.N.N.N.M.M.N.g.+.; i ] O.W z N T u   5 1.b.M.N.N.N.N.n.b.c.c.",
"l.l.M.N.M.b.b.M.$.; 3 m ( 5.[ z ` [ M < 6 ,.b.M.N.N.N.N.b.b.c.l.",
"l.l.M.M.n.M.b.b.$.; t E 8.r.o.i F _ f 7 $.v.b.b.N.N.N.N.M.c.l.l.",
"l.l.b.M.N.n.M.b.f.I 8 p L { D - : 0 0 $.M.M.M.b.b.n.M.M.b.b.l.l.",
"l.l.c.b.M.M.b.b.b.j.I 7 0 e 0 6 I 1.1.x.b.b.b.c.b.b.b.b.b.c.l.l.",
"l.l.l.b.c.b.l.l.l.l.j.3.p.3.3.3.j.c.c.c.c.b.l.l.l.l.c.c.c.l.l.l.",
"l.l.l.c.c.c.l.l.l.l.l.l.b.c.z.l.l.l.c.z.b.c.l.l.h.l.l.l.c.l.l.l."
};
