/* XPM */
static char *result[] = {
/* columns rows colors chars-per-pixel */
"32 32 194 2 ",
"   c #78523B",
".  c #28365E",
"X  c #2C3B63",
"o  c #313F68",
"O  c #1F436A",
"+  c #195479",
"@  c #2D436B",
"#  c #23486C",
"$  c #33426B",
"%  c #32486F",
"&  c #215B6F",
"*  c #2D4C73",
"=  c #354B74",
"-  c #3B4C74",
";  c #22597C",
":  c #0B6175",
">  c #276170",
",  c #525E59",
"<  c #42547B",
"1  c #42597F",
"2  c #84675C",
"3  c #94647A",
"4  c #075A85",
"5  c #065A86",
"6  c #065E88",
"7  c #385F81",
"8  c #07658C",
"9  c #0B668C",
"0  c #176889",
"q  c #096C90",
"w  c #166F90",
"e  c #0B7594",
"r  c #0D7B99",
"t  c #197B99",
"y  c #286381",
"u  c #266F8C",
"i  c #356783",
"p  c #29738C",
"a  c #247995",
"s  c #377894",
"d  c #465A81",
"f  c #4A5D84",
"g  c #4D6085",
"h  c #496885",
"j  c #5A6B8A",
"k  c #42718A",
"l  c #537A8E",
"z  c #5E6F92",
"x  c #487896",
"c  c #63718C",
"v  c #6D768D",
"b  c #757D8E",
"n  c #977488",
"m  c #AC7385",
"M  c #0C809D",
"N  c #29869A",
"B  c #39859B",
"V  c #0A8AA6",
"C  c #0C8BA5",
"Z  c #1388A4",
"A  c #1B8BA5",
"S  c #0790AD",
"D  c #1496AD",
"F  c #1C93AC",
"G  c #0F97B1",
"H  c #0799B3",
"J  c #0C9DB5",
"K  c #149DB4",
"L  c #1A9BB3",
"P  c #2897AC",
"I  c #3195AD",
"U  c #3394AC",
"Y  c #0FA1B7",
"T  c #0DA2B9",
"R  c #15A1B6",
"E  c #19A3B5",
"W  c #12A5BB",
"Q  c #1BA5B9",
"!  c #13A9BE",
"~  c #1CAABD",
"^  c #26A6B8",
"/  c #2BACBB",
"(  c #32A5B5",
")  c #34ACBC",
"_  c #468E9F",
"`  c #5E899A",
"'  c #43919E",
"]  c #53909E",
"[  c #70848A",
"{  c #618594",
"}  c #7C8C9C",
"|  c #4294A3",
" . c #4A9FAD",
".. c #5497A4",
"X. c #6C9CA2",
"o. c #48A0AB",
"O. c #5AA5A9",
"+. c #46A9B9",
"@. c #57ABB6",
"#. c #4CB8BF",
"$. c #5DB0BB",
"%. c #66AAA8",
"&. c #77A4A7",
"*. c #7DA9A7",
"=. c #6CAFB1",
"-. c #64B2BF",
";. c #7DB4B6",
":. c #16ACC0",
">. c #1CAEC1",
",. c #25AFC0",
"<. c #2FAEC0",
"1. c #23B1C2",
"2. c #2CB5C5",
"3. c #33B5C4",
"4. c #3DB6C3",
"5. c #3ABAC6",
"6. c #45BCC9",
"7. c #6BBFC9",
"8. c #79BDC2",
"9. c #45C1CB",
"0. c #5CC3CC",
"q. c #6EC7CF",
"w. c #74C5C7",
"e. c #83949B",
"r. c #909399",
"t. c #B39E91",
"y. c #9FAC8E",
"u. c #A7A49B",
"i. c #8E92A0",
"p. c #9A9BA5",
"a. c #89A7A4",
"s. c #97A8A5",
"d. c #87B5AF",
"f. c #88B3AD",
"g. c #92B3AA",
"h. c #9DB5A9",
"j. c #8AB9B5",
"k. c #98BCB5",
"l. c #B0ADA7",
"z. c #A9B7A9",
"x. c #B6B6A6",
"c. c #B0BDAD",
"v. c #A6BEB1",
"b. c #C5BAA9",
"n. c #84C3BC",
"m. c #8CC5BD",
"M. c #96C3B8",
"N. c #BFC3AE",
"B. c #AFC6B4",
"V. c #ABCCBC",
"C. c #B4C3B2",
"Z. c #BCCAB5",
"A. c #BAC9B8",
"S. c #C8C2AD",
"D. c #D6C5AC",
"F. c #DBCBAE",
"G. c #C3CBB5",
"H. c #CDCCB3",
"J. c #C6C9BE",
"K. c #D3CDB3",
"L. c #DCCDB1",
"P. c #CCD1B8",
"I. c #D7D3B6",
"U. c #DDD3B6",
"Y. c #D7D3B8",
"T. c #DDD6BA",
"R. c #E4CDAC",
"E. c #E9CEAB",
"W. c #E9D0AE",
"Q. c #E6D5B5",
"!. c #EAD5B4",
"~. c #EAD8B6",
"^. c #E4D7BA",
"/. c #EAD7B9",
"(. c #E7D9BC",
"). c #EAD9BA",
"_. c #8BBCC1",
"`. c #8DC3C4",
"'. c #88C8C7",
"]. c #99C9C2",
"[. c #92CFD0",
"{. c #9BD6D7",
"}. c #A5CECC",
"|. c #B4CEC7",
" X c #B5D1C1",
".X c #B7D3CB",
"XX c #ACD5D2",
"oX c #B5D8D3",
"OX c #C6D2CF",
"+X c #D1D9CE",
"@X c #D2DED5",
"#X c #E6D9C3",
"$X c #E0D3C9",
"%X c #DAE5DB",
/* pixels */
"E.E.W.!.!.~.).).~.!.!.!.~.~.~.!.W.W.!.~.~.~.).).).~.~.!.~.!.W.E.",
"E.E.!.!.~.~.).).Q.I.!.!.~.!.Q.!.N.d.G.~.~.~.).).~.~.!.!.!.!.W.E.",
"E.E.!.!.).).).).G.M.!.!.~.~.!.c.h.t F m.!.~.).Y.B.!.!.!.!.!.W.E.",
"E.E.!.!.).).).).*.=.~.~.~.~.v.' t w 8 Q '.P.).).o.T.~.~.!.!.W.E.",
"E.W.!.!.).).).~.&.{ V.Q.^.h.N q 9 9 4 C 2.8.~.U.( V.).~.!.!.W.E.",
"E.E.!.~.).~.~.~.g.n U n.C.` 9 q 8 : 4 r 3.M.Q.*.^ V.).).~.!.W.E.",
"W.W.!.!.~.~.~.!.H.b 3 L #.k.F V V M 8 A ) ].d.D ) Z.~.~.~.!.W.E.",
"W.W.!.).~.~.!.!.^.&.m h W E H T T H r Z Q / U Y &.Z.~.~.~.!.E.E.",
"E.!./.).~.~.!.!.!.K.{ 3 t H H : e Y Y W ! Q N @.p.T.~.~.~.!.W.E.",
"E.W./.).~./.!./.~.).c.l 7 H V y s G W ! 1.@.;.-.V.~.~.~.!.!.E.E.",
"E.E.!./.~.!.!.!.).#X).c.s S P OXN.N ! ! ~ g.t.8.T.(.).~.~.W.W.E.",
"E.E.!./.!.!.!./.).).)./.i.q 6.$X2 & ! ~ ~ ,   m.#X(.).!.~.!.W.E.",
"E.E.!.!.~.!.~.~.).#X~./.g.6 U $X  > ~ 5.9.%.y.q.w.(.).~.~.~.W.E.",
"E.E.!.!.).~.~.~.).~.~.N.t 8 Z 7.O.^ Q ~ 2.+.5.) 0.).~.).).).W.E.",
"E.E.!.).).).).~.~.~./.U.] q V J T ! K ~ 2.) 3.5. X~.!.~.).~.W.W.",
"E.E.!./.).#X).~.K.d.B.~.K.X.t K T R E / / ) 5.I j.Y.!.!.).~.W.E.",
"W.W.!.~.(.~.U.g.N 0 %.!././.J._ D Q ~ / 4.w.O.# ; o.Z.!.!.!.W.W.",
"W.!.!.!.(.G...0 O X a P././.^.{ p a.a.f.C.A.a X $ = B M.^.!.W.W.",
"E.E.!.Q.v.B + @ . X ; O.Y.~.H.B $.+X+X+XOX| ; - $ 1 1 s ;.T.W.W.",
"E.E.Q.g.u * $ $ o X % w @.V.&.L w.%X%X%X].0 % f < - j z x &.F.W.",
"E.R.s.> < d < $ - o o * 9 Z F K w.%X%X%X}.i < f f < z i.u.} a.E.",
"E.l.h j c f < - d d - - % ; r T [.%X%X%XXXI g f c b v F./.Q.D.R.",
"R.u.b.D.L.r.< f f f d < < 7 L :.XX%X%X%XoX/ x c D.^.b.Q.~.!.W.E.",
"E.W.W././.b.b l.l.j f f d I >.,.XX%X%X%XoX1.j.b.(./.~.!.!.!.W.E.",
"E.W./.#X/.!.L./.v.U e.&.I ~ 2.3.oX%X%X%XXX2.M.).#X).).~.~.!.!.W.",
"E.W./././.!./.z.( V.j.1.F F 2.5..X%X%X%X_.2.].!.).#X).~.~.!.!.E.",
"E.E./.#X/./.!.O.`.Y.4.2.F 6 3.5.|.%X%X@X .3.}.!.~.).).)./.W.E.E.",
"E.W././.~.!.!.O.k.T.3.2.F 5 <.5.k.J.J.e.N 3. X!.~.~.).).!.W.E.E.",
"E.E.!./.~.~./.S._ ..( 3.r + ^ 3.`.z.[ + P 6.XX^.!.!.~.!.~.!.E.E.",
"E.E.!./././.!.!.R.x.a.B x i +.0.q.{.k u  .0.w..X!.!.!.W.!.W.E.E.",
"E.E.E.W.W.!.E.E.E.E.E.F.S.D.S.Z.H.P.L.L.K.K.F.E.E.W.W.W.W.W.E.E.",
"E.E.E.W.W.W.E.E.E.E.E.W.W.W.E.E.E.E.E.W.W.E.E.E.E.E.E.W.W.W.E.E."
};
